<svg width="182" height="77" viewBox="0 0 182 77" fill="none" xmlns="http://www.w3.org/2000/svg">
<path d="M141.886 52.5178H126.995V62.4451H141.886V52.5178Z" stroke="black" stroke-width="4.96369" stroke-miterlimit="10"/>
<path d="M131.958 42.5906H117.067V52.5179H131.958V42.5906Z" stroke="black" stroke-width="4.96369" stroke-miterlimit="10"/>
<path d="M139.391 32.6892H124.5V42.6164H139.391V32.6892Z" stroke="black" stroke-width="4.96369" stroke-miterlimit="10"/>
<path d="M146.823 42.5906H131.932V52.5179H146.823V42.5906Z" stroke="black" stroke-width="4.96369" stroke-miterlimit="10"/>
<path d="M161.714 42.5906H146.823V52.5179H161.714V42.5906Z" stroke="black" stroke-width="4.96369" stroke-miterlimit="10"/>
<path d="M156.751 52.5178H141.86V62.4451H156.751V52.5178Z" stroke="black" stroke-width="4.96369" stroke-miterlimit="10"/>
<path d="M171.642 52.5178H156.751V62.4451H171.642V52.5178Z" stroke="black" stroke-width="4.96369" stroke-miterlimit="10"/>
<path d="M164.183 30.1945L153.424 34.5084C152.939 34.7125 152.404 34.7645 151.889 34.6578C151.374 34.5511 150.903 34.2906 150.539 33.9107C150.169 33.546 149.917 33.0787 149.815 32.5691C149.713 32.0595 149.766 31.5311 149.968 31.052L154.282 20.2671C156.91 20.274 159.429 21.3229 161.285 23.1839C163.141 25.0449 164.183 27.566 164.183 30.1945Z" stroke="black" stroke-width="4.96369" stroke-miterlimit="10"/>
<path d="M161.715 22.7619L164.183 20.267V12.8345L171.642 7.87085" stroke="black" stroke-width="4.96369" stroke-miterlimit="10"/>
<path d="M126.995 62.4456H114.573" stroke="black" stroke-width="4.96369" stroke-miterlimit="10"/>
<path d="M15.5131 22.6441V57.6037H8.30988V22.6441H15.5131ZM36.1143 22.6441L22.7163 43.1733H13.9043L12.9919 36.7624H18.8746L27.3743 22.6441H36.1143ZM28.6949 57.6037L18.8986 41.9728L23.8928 36.8344L37.2427 57.6037H28.6949ZM59.5725 46.0066H66.7519C66.6077 48.3597 65.9594 50.4485 64.8069 52.2731C63.6704 54.0982 62.0777 55.5228 60.029 56.5473C57.9958 57.5715 55.547 58.084 52.6816 58.084C50.4406 58.084 48.4316 57.6998 46.655 56.9315C44.878 56.1469 43.3573 55.0266 42.0928 53.5698C40.8442 52.113 39.8919 50.3524 39.2356 48.2874C38.5793 46.2228 38.2512 43.9095 38.2512 41.3483V38.9233C38.2512 36.3622 38.5874 34.0492 39.2597 31.9842C39.948 29.9033 40.9244 28.1346 42.1889 26.6779C43.4693 25.2213 44.998 24.1008 46.775 23.3164C48.552 22.5321 50.5367 22.1399 52.7296 22.1399C55.6428 22.1399 58.0999 22.6681 60.1009 23.7246C62.1178 24.781 63.6787 26.2377 64.7831 28.0945C65.9034 29.9513 66.576 32.0643 66.8 34.4334H59.5968C59.5165 33.0247 59.2365 31.8322 58.7562 30.8558C58.2763 29.8633 57.5477 29.119 56.5712 28.6228C55.611 28.1105 54.3302 27.8544 52.7296 27.8544C51.5291 27.8544 50.4807 28.0785 49.5841 28.5267C48.6878 28.9749 47.9354 29.6552 47.3272 30.5676C46.719 31.48 46.2629 32.6325 45.9586 34.0252C45.6706 35.4018 45.5264 37.0185 45.5264 38.8753V41.3483C45.5264 43.1571 45.6626 44.7501 45.9348 46.1266C46.2069 47.4873 46.6228 48.6397 47.183 49.584C47.7594 50.5125 48.4956 51.2168 49.3922 51.6971C50.3047 52.1611 51.4012 52.3935 52.6816 52.3935C54.1864 52.3935 55.4267 52.1532 56.4031 51.6729C57.3796 51.193 58.1241 50.4807 58.6362 49.536C59.1646 48.5917 59.4768 47.415 59.5725 46.0066ZM74.7716 22.6441H80.87L89.8502 48.3116L98.83 22.6441H104.929L92.2994 57.6037H87.4011L74.7716 22.6441ZM71.4818 22.6441H77.5568L78.6612 47.6633V57.6037H71.4818V22.6441ZM102.144 22.6441H108.242V57.6037H101.039V47.6633L102.144 22.6441Z" fill="black"/>
</svg>
