<svg width="182" height="77" viewBox="0 0 182 77" fill="none" xmlns="http://www.w3.org/2000/svg">
<path fill-rule="evenodd" clip-rule="evenodd" d="M124.5 30.2073H122.018V32.6891V40.1086H117.067H114.586V42.5905V52.5178V54.9996H117.067H124.513V62.445V64.9269H126.995H139.378H141.86H141.886H144.368H154.269H156.751H156.751H159.233H171.642H174.124V62.445V52.5177V50.0359H171.642H164.196V42.5905V40.1086H161.714H149.305H146.823H146.823H144.342H141.873V32.6891V30.2073H139.391H124.5ZM159.233 54.9996H161.714H164.196V54.9996H169.16V59.9632H159.233V54.9996ZM159.232 50.0359V45.0723H149.305V50.0359H154.269H156.751H156.751H159.232ZM139.378 59.9632V54.9996H134.44H131.958H131.932H129.477V59.9632H139.378ZM141.86 50.0359H139.378H134.44V45.0982H139.391H141.873V45.0723H144.342V50.0359H141.886H141.86ZM154.269 59.9632H144.368V54.9996H146.823H146.823H149.305H154.269V59.9632ZM129.45 50.0359V45.0982H124.5H122.018V45.0723H119.549V50.0359H124.513V50.0359H126.995H129.45ZM131.932 40.1086H129.45H126.982V35.171H136.909V40.1086H134.44H131.958H131.932Z" fill="white" fill-opacity="0.8"/>
<path d="M164.183 30.1945L153.424 34.5084C152.939 34.7125 152.404 34.7645 151.889 34.6578C151.374 34.5511 150.903 34.2906 150.539 33.9107C150.169 33.546 149.917 33.0787 149.815 32.5691C149.713 32.0595 149.766 31.5311 149.968 31.052L154.282 20.2671C156.91 20.274 159.429 21.3229 161.285 23.1839C163.141 25.0449 164.183 27.566 164.183 30.1945Z" stroke="white" stroke-opacity="0.8" stroke-width="4.96369" stroke-miterlimit="10"/>
<path d="M164 19.891L166.469 17.3962V9.96369L173.927 5" stroke="white" stroke-opacity="0.8" stroke-width="4.96369" stroke-miterlimit="10"/>
<path d="M123.422 62H111" stroke="white" stroke-opacity="0.8" stroke-width="4.96369" stroke-miterlimit="10"/>
<path d="M15.513 22.6441V57.6037H8.30981V22.6441H15.513ZM36.1142 22.6441L22.7162 43.1733H13.9043L12.9919 36.7624H18.8745L27.3743 22.6441H36.1142ZM28.6949 57.6037L18.8985 41.9728L23.8928 36.8344L37.2427 57.6037H28.6949ZM59.5725 46.0066H66.7519C66.6077 48.3597 65.9593 50.4485 64.8069 52.2731C63.6703 54.0982 62.0776 55.5228 60.0289 56.5473C57.9957 57.5715 55.547 58.084 52.6815 58.084C50.4405 58.084 48.4315 57.6998 46.655 56.9315C44.878 56.1469 43.3572 55.0266 42.0927 53.5698C40.8441 52.113 39.8919 50.3524 39.2356 48.2874C38.5793 46.2228 38.2511 43.9095 38.2511 41.3483V38.9233C38.2511 36.3622 38.5873 34.0492 39.2596 31.9842C39.9479 29.9033 40.9244 28.1346 42.1889 26.6779C43.4693 25.2213 44.998 24.1008 46.7749 23.3164C48.5519 22.5321 50.5367 22.1399 52.7296 22.1399C55.6427 22.1399 58.0998 22.6681 60.1008 23.7246C62.1178 24.781 63.6786 26.2377 64.783 28.0945C65.9033 29.9513 66.5759 32.0643 66.8 34.4334H59.5967C59.5165 33.0247 59.2364 31.8322 58.7561 30.8558C58.2762 29.8633 57.5476 29.119 56.5711 28.6228C55.6109 28.1105 54.3302 27.8544 52.7296 27.8544C51.529 27.8544 50.4806 28.0785 49.584 28.5267C48.6878 28.9749 47.9353 29.6552 47.3271 30.5676C46.7189 31.48 46.2629 32.6325 45.9585 34.0252C45.6705 35.4018 45.5263 37.0185 45.5263 38.8753V41.3483C45.5263 43.1571 45.6626 44.7501 45.9347 46.1266C46.2068 47.4873 46.6228 48.6397 47.1829 49.584C47.7594 50.5125 48.4955 51.2168 49.3921 51.6971C50.3046 52.1611 51.4011 52.3935 52.6815 52.3935C54.1863 52.3935 55.4266 52.1532 56.4031 51.6729C57.3796 51.193 58.124 50.4807 58.6361 49.536C59.1645 48.5917 59.4767 47.415 59.5725 46.0066ZM74.7715 22.6441H80.87L89.8502 48.3116L98.83 22.6441H104.929L92.2993 57.6037H87.401L74.7715 22.6441ZM71.4817 22.6441H77.5567L78.6611 47.6633V57.6037H71.4817V22.6441ZM102.144 22.6441H108.242V57.6037H101.039V47.6633L102.144 22.6441Z" fill="white" fill-opacity="0.8"/>
</svg>
